<svg xmlns="http://www.w3.org/2000/svg" width="314.326" height="332.969" viewBox="0 0 314.326 332.969">
  <g>
    <g>
      <circle cx="143.104" cy="210.095" r="122.873" fill="#c48400"/>
      <circle cx="143.104" cy="210.095" r="113.424" fill="#ffac00"/>
      <circle cx="143.104" cy="210.095" r="102.477" fill="#ffde00"/>
    </g>
    <g>
      <path d="M65.666,180.917c5.5-21.671,33.9-27.641,48.705-11.252a27.137,27.137,0,0,1,7.29,17.887,4.559,4.559,0,0,1-8.878,1.477c-3.166-7.818-9.809-13.732-17.97-14.663s-15.86,3.238-20.854,10.048a4.578,4.578,0,0,1-8.293-3.5Z"/>
      <path d="M212.248,184.414c-7.337-10.344-21.4-13.816-31.429-5.532a25.341,25.341,0,0,0-7.516,10.439,4.552,4.552,0,0,1-8.756-1.769,27.137,27.137,0,0,1,7.29-17.887c9.181-10.38,26.117-12.522,37.5-4.525a26.582,26.582,0,0,1,11.2,15.777,4.57,4.57,0,0,1-8.293,3.5Z"/>
    </g>
    <g>
      <polygon points="291.986 41.25 285.546 61.06 208.116 68.68 244.556 45.92 291.986 41.25" fill="#ff4000"/>
      <path d="M280.776,75.73l-6.44,19.82-99.97,9.84c-.94-1.67-1.85-3.38-2.7-5.11l-3.34-6.74,12.95-8.08a8.062,8.062,0,0,0,1.09-.04Z" fill="#ff4000"/>
      <path d="M269.566,110.22l-6.44,19.81-62.37,6.14a107.752,107.752,0,0,1-17.42-17.46Z" fill="#ff4000"/>
      <path d="M258.356,144.7l-4.78,14.71a116.34,116.34,0,0,1-33.59-10.93Z" fill="#ff4000"/>
      <polygon points="296.756 26.58 291.986 41.25 244.556 45.92 271.546 29.06 296.756 26.58" fill="#b52e00"/>
      <path d="M285.546,61.06l-4.77,14.67-98.41,9.69a8.062,8.062,0,0,1-1.09.04l26.84-16.78Z" fill="#b52e00"/>
      <path d="M274.336,95.55l-4.77,14.67-86.23,8.49a105.184,105.184,0,0,1-8.97-13.32Z" fill="#b52e00"/>
      <path d="M263.126,130.03l-4.77,14.67-38.37,3.78a111.886,111.886,0,0,1-19.23-12.31Z" fill="#b52e00"/>
      <path d="M298.076,20.21a4.435,4.435,0,0,1-.09,2.59l-1.23,3.78-25.21,2.48,18.7-11.69a5.413,5.413,0,0,1,3.13-.83L296.026,0l18.3,12.3Z" fill="#ff4000"/>
    </g>
    <g>
      <path d="M279.053,210.983a29.508,29.508,0,0,0-13.222-18.51,24.48,24.48,0,0,0-33.7,7.807,20.277,20.277,0,0,0,6.462,27.91,16.914,16.914,0,0,0,23.274-5.39,14.217,14.217,0,0,0-4.533-19.564,12.07,12.07,0,0,0-13.2.283,3.441,3.441,0,0,0-1.517,2.853,3.449,3.449,0,0,0,5.322,2.863,5.205,5.205,0,0,1,5.767-.18,7.345,7.345,0,0,1,2.339,10.112,10.048,10.048,0,0,1-13.822,3.213,13.426,13.426,0,0,1-4.285-18.467,17.632,17.632,0,0,1,24.269-5.622,22.87,22.87,0,0,1,7.3,31.5,29.371,29.371,0,0,1-19.118,13.257H216.711v6.367h30.507a32.03,32.03,0,0,0,18.193-5.519c.351-.24.7-.5,1.045-.754l.12-.094a36.3,36.3,0,0,0,8.75-9.624A29.519,29.519,0,0,0,279.053,210.983Z" fill="#009fc7"/>
      <polygon points="217.661 254.221 162.726 252.098 162.726 240.364 217.799 237.608 217.661 254.221" fill="#0cf"/>
    </g>
    <g>
      <path d="M144.874,218.926c7.241-3.528,17.527-1.7,22.8,5.1a14,14,0,0,1-.149,17.906c-5.423,6.446-14.286,8.313-22.143,6.925a2.039,2.039,0,0,1-.1-3.978c6.453-1.405,16.494-4.379,17.145-11.949-.334-6.939-9.649-10.61-16.534-10.135a2.038,2.038,0,0,1-1.024-3.866Z"/>
      <path d="M145.083,245.539c7.242-3.528,17.528-1.7,22.8,5.1a14,14,0,0,1-.149,17.906c-5.422,6.446-14.285,8.313-22.143,6.925a2.039,2.039,0,0,1-.1-3.978c6.452-1.4,16.494-4.379,17.145-11.949-.334-6.939-9.649-10.611-16.534-10.135a2.038,2.038,0,0,1-1.025-3.866Z"/>
    </g>
    <path d="M262.832,183.333A20.629,20.629,0,0,1,249.8,178.79l8.224-10.068a7.545,7.545,0,0,0,11.935-8.215l12.343-4.082a20.924,20.924,0,0,1-7.858,23.378A20.486,20.486,0,0,1,262.832,183.333Z" fill="#ff52a0"/>
    <path d="M57.219,119.713a20.638,20.638,0,0,1-13.036-4.541l8.223-10.07a7.545,7.545,0,0,0,11.936-8.214l12.342-4.082a20.914,20.914,0,0,1-7.859,23.377A20.482,20.482,0,0,1,57.219,119.713Z" fill="#ff4000"/>
    <path d="M26.45,191.657a22.466,22.466,0,0,1,14.871,2.164l-6.711,12.46a8.709,8.709,0,0,0-9.751,1.47,8.71,8.71,0,0,0-1.313,9.772L11.2,224.432a22.766,22.766,0,0,1,3.577-26.607A22.289,22.289,0,0,1,26.45,191.657Z" fill="#ff52a0"/>
    <path d="M79.041,315.95a22.464,22.464,0,0,1-10.2,11.035L62.367,314.4a8.214,8.214,0,0,0-3.006-15.484l1.294-14.091a22.767,22.767,0,0,1,19.911,18.009A22.3,22.3,0,0,1,79.041,315.95Z" fill="#ff4000"/>
    <path d="M13.036,263.772A20.644,20.644,0,0,1,0,259.231L8.222,249.16a8,8,0,0,0,9.05.373,8,8,0,0,0,2.887-8.586L32.5,236.865a20.915,20.915,0,0,1-7.858,23.377A20.482,20.482,0,0,1,13.036,263.772Z" fill="#0cf"/>
    <path d="M211.958,307.035a20.638,20.638,0,0,1,.619-13.791l12,4.995a7.545,7.545,0,0,0,11.287,9.086l7.444,10.657a20.916,20.916,0,0,1-24.649-.838A20.473,20.473,0,0,1,211.958,307.035Z" fill="#009fc7"/>
    <path d="M113.1,78.322A19.844,19.844,0,0,1,98.279,45.005l9.552,8.819a6.869,6.869,0,0,0,6.646,11.341L117.5,77.807A18.867,18.867,0,0,1,113.1,78.322Z" fill="#009fc7"/>
  </g>
</svg>
